<svg width="120" height="120" viewBox="0 0 120 120" fill="none" xmlns="http://www.w3.org/2000/svg">
<rect width="120" height="120" fill="black" fill-opacity="0"/>
<circle cx="60" cy="60" r="60" fill="#0095FF"/>
<rect width="120" height="120" fill="black" fill-opacity="0"/>
<mask id="mask0" mask-type="alpha" maskUnits="userSpaceOnUse" x="0" y="0" width="120" height="120">
<circle cx="60" cy="60" r="60" fill="#0095FF"/>
</mask>
<g mask="url(#mask0)">
<path d="M0 93.7581L21.1348 59.4146L0 26.6322H16.0468L29.7452 50.0482L41.4867 29.9494C42.7913 27.7379 44.8135 26.6322 47.5532 26.6322H59.4904L38.3557 59.4146L59.4904 93.7581H43.6393L29.7452 70.5372L16.0468 93.7581H0Z" fill="white"/>
<path d="M75.1458 60.1951C75.1458 67.7403 76.7766 73.4642 80.0381 77.3669C83.2996 81.3996 87.931 83.416 93.9322 83.416C99.803 83.416 104.434 81.3996 107.826 77.3669C111.218 73.204 112.914 67.4801 112.914 60.1951C112.914 52.9101 111.218 47.1212 107.826 42.8283C104.434 38.7955 99.803 36.7791 93.9322 36.7791C87.931 36.7791 83.2996 38.7955 80.0381 42.8283C76.7766 46.861 75.1458 52.65 75.1458 60.1951ZM61.2516 60.1951C61.2516 49.2677 64.1218 40.6167 69.8621 34.2424C75.9938 27.868 84.0172 24.6808 93.9322 24.6808C103.717 24.6808 111.74 27.868 118.002 34.2424C123.873 40.7468 126.809 49.3977 126.809 60.1951C126.809 70.9925 123.873 79.5784 118.002 85.9527C112.001 92.197 103.978 95.3191 93.9322 95.3191C83.7562 95.3191 75.7329 92.197 69.8621 85.9527C64.1218 79.7085 61.2516 71.1226 61.2516 60.1951Z" fill="white"/>
</g>
</svg>
